# xmcd CD database file
#
# Track frame offsets:
#	150
#	14305
#	26167
#	43092
#	55760
#	65422
#	76502
#	88410
#	96742
#	109287
#	118637
#	130222
#	139372
#	149602
#	165592
#
# Disc length: 2357 seconds
#
# Revision: 0
# Processed by: cddbd v1.4PL0 Copyright (c) Steve Scherf et al.
# Submitted via: CDex 1.50beta9
#
DISCID=db09330f
DTITLE=Freddy Fender - Sings Country
DYEAR=1993
DGENRE=Country
TTITLE0=Cielito Lindo
TTITLE1=Your Cheatin' Heart
TTITLE2=Secret Love
TTITLE3=I Can't Stop Loving You
TTITLE4=There'll Be No Teardrops Tonight
TTITLE5=Six Days on The Road
TTITLE6=Before the Next Teardrop Falls
TTITLE7=Whiskey River
TTITLE8=Rancho Grande
TTITLE9=You Win Again
TTITLE10=Walking Piece of Heaven
TTITLE11=I Can't Help It
TTITLE12=Cold, Cold Heart
TTITLE13=I'm So Lonesome I Could Cry
TTITLE14=Crazy Baby
EXTD=YEAR: 1993
EXTT0=
EXTT1=
EXTT2=
EXTT3=
EXTT4=
EXTT5=
EXTT6=
EXTT7=
EXTT8=
EXTT9=
EXTT10=
EXTT11=
EXTT12=
EXTT13=
EXTT14=
PLAYORDER=
